<svg width="246" height="65" viewBox="0 0 246 65" xmlns="http://www.w3.org/2000/svg"><title>Pitchday header</title><defs><linearGradient x1="0%" y1="0%" x2="25%" y2="100%" id="a"><stop stop-color="#65B1D1" offset="0%"/><stop stop-color="#6497CE" offset="56%"/><stop stop-color="#6231C3" offset="100%"/><stop stop-color="#6231C3" offset="100%"/></linearGradient><linearGradient x1="-6.612%" y1="108.088%" x2="75%" y2="12.5%" id="b"><stop stop-color="#A453FF" offset="0%"/><stop stop-color="#3A81F4" offset="100%"/></linearGradient><linearGradient x1="0%" y1="50%" y2="50%" id="c"><stop stop-color="#53DFFF" offset="0%"/><stop stop-color="#3A81F4" offset="100%"/></linearGradient><linearGradient x1="0%" y1="50%" x2="99.999%" y2="50%" id="d"><stop stop-color="#65B1D1" offset="0%"/><stop stop-color="#6231C3" offset="100%"/></linearGradient><linearGradient x1="-.001%" y1="0%" x2="25%" y2="100%" id="e"><stop stop-color="#65B1D1" offset="0%"/><stop stop-color="#6497CE" offset="56%"/><stop stop-color="#6231C3" offset="100%"/><stop stop-color="#6231C3" offset="100%"/></linearGradient><linearGradient x1="-6.611%" y1="108.089%" x2="75%" y2="12.5%" id="f"><stop stop-color="#A453FF" offset="0%"/><stop stop-color="#3A81F4" offset="100%"/></linearGradient><linearGradient x1="-.001%" y1="49.999%" y2="49.999%" id="g"><stop stop-color="#53DFFF" offset="0%"/><stop stop-color="#3A81F4" offset="100%"/></linearGradient><linearGradient x1="0%" y1="50.001%" x2="100.001%" y2="50.001%" id="h"><stop stop-color="#65B1D1" offset="0%"/><stop stop-color="#6231C3" offset="100%"/></linearGradient></defs><g fill="none" fill-rule="evenodd"><path d="M9.222 57.592V15.707L36.57 31.414V20.942L.106 0v52.356z" transform="translate(1.016 6.39)" fill="url(#a)"/><path d="M9.36 5.236v20.942l18.232-10.471V5.236L36.707 0v20.942L.244 41.885V0z" transform="translate(9.995 22.096)" fill="url(#b)"/><path d="M.106 5.236L9.222 0l36.464 20.942-9.116 5.236z" transform="translate(1.016 1.154)" fill="url(#c)"/><path d="M.072 5.236L9.188 0l9.116 5.236L.072 15.706z" transform="translate(19.283 32.568)" fill="url(#d)"/><g stroke="#45386A"><path d="M19.355 27.332v20.942l27.21-15.627"/><path d="M46.702 32.568v10.47L10.24 63.982V22.096M10.239 63.981l-9.116-5.235V16.86"/><path d="M19.355 37.803l9.115-5.235 9.116 5.235M46.702 32.568V22.096L10.24 1.154 1.123 6.39v10.47l35.844 20.587"/><path d="M37.586 37.803V27.332L1.123 6.39M46.702 22.096l-9.116 5.236"/></g><g><g fill-rule="nonzero" fill="#372861"><path d="M101.356 26.524c0-2.403-.826-4.897-2.479-6.711-2.341-2.54-6.014-3.446-11.339-3.446h-7.16c-1.057 0-1.378.272-1.378 1.405v28.885c0 .998.505 1.18 1.331 1.18h4.59c1.057 0 1.378-.454 1.378-1.225v-9.205h2.57c6.84 0 12.487-3.673 12.487-10.883zm-7.345.317c0 3.764-2.479 5.034-5.784 5.034h-1.928v-9.93h2.25c3.442 0 5.462 1.45 5.462 4.896zM111.042 19.677c0-2.177-1.836-3.446-3.673-3.446-1.882 0-3.718 1.27-3.718 3.491 0 2.177 1.974 3.401 3.718 3.401 1.745 0 3.673-1.27 3.673-3.446zm-.184 7.255c0-.952-.459-1.179-1.331-1.179h-4.132c-.826 0-1.423.272-1.423 1.18V46.52c0 .998.46 1.315 1.423 1.315h4.132c.918 0 1.331-.408 1.331-1.315V26.932zM122.748 20.221c0-.726-.413-1.088-1.286-.952l-4.498.59c-.873.135-1.102.589-1.102 1.405v4.49h-2.112c-.688 0-1.056.543-1.056 1.178v1.95c0 1.224.184 1.496 1.286 1.496h1.836v8.707c0 3.718.092 5.577 1.56 7.3 1.24 1.451 3.306 2.04 5.877 2.04 2.111 0 4.223-.453 5.784-1.133.826-.363.918-.77.78-1.405l-.55-2.903c-.139-.725-.735-.68-1.286-.498-.918.272-1.79.544-2.938.544-2.02 0-2.295-1.451-2.295-3.81v-8.842h4.957c.643 0 1.102-.362 1.102-1.043v-2.63c0-.68-.459-.952-1.102-.952h-4.957v-5.532zM147.812 42.667c-.184-.68-.643-.59-1.148-.408-1.606.59-2.616.816-4.04.816-3.718 0-5.738-1.904-5.738-6.303 0-3.9 1.928-6.258 5.51-6.258 1.422 0 2.753.363 4.039.862.597.227 1.056.272 1.24-.453l.734-3.265c.137-.635.137-1.043-.505-1.315-2.158-.907-4.224-1.225-6.381-1.225-7.299 0-11.752 4.67-11.752 12.017 0 7.482 4.682 11.29 11.339 11.29 2.433 0 4.912-.407 6.977-1.314.597-.272.873-.499.597-1.406l-.872-3.038zM157.544 33.008c1.285-1.088 3.26-1.768 4.774-1.768 2.066 0 2.617 1.27 2.617 3.174v12.107c0 .998.459 1.315 1.423 1.315h4.131c.918 0 1.331-.408 1.331-1.315V33.19c0-4.898-2.249-8.072-7.253-8.072-2.295 0-5.233.771-7.023 2.268v-11.11c0-.726-.413-1.088-1.286-.952l-4.498.59c-.872.135-1.102.589-1.102 1.405V46.52c0 .998.46 1.315 1.423 1.315h4.132c.918 0 1.33-.408 1.33-1.315V33.008zM189.356 26.932c-1.24-1.134-3.121-1.814-5.141-1.814-6.794 0-10.053 6.031-10.053 12.062 0 6.167 3.213 11.246 9.64 11.246 2.433 0 4.774-1.043 6.06-2.449l.09.952c.047.5.414.907 1.194.907h3.856c.69 0 1.24-.362 1.24-1.27v-30.29c0-.726-.413-1.088-1.285-.952l-4.5.59c-.871.135-1.1.589-1.1 1.405v9.613zm0 14.33c-.734.77-2.433 1.632-3.764 1.632-3.489 0-4.27-3.31-4.27-6.122 0-2.72 1.057-6.167 4.408-6.167 1.33 0 2.8.68 3.626 1.451v9.205zM222.592 44.163c0-.68-.322-.907-.965-.907h-.367c-.505 0-.688-.317-.688-.77V26.84c0-.725-.46-1.088-1.102-1.088h-4.132c-.596 0-.964.318-1.055.907l-.138.998c-.964-1.36-3.03-2.54-5.6-2.54-5.05 0-10.1 4.081-10.1 12.108 0 6.03 3.076 11.2 9.686 11.2 2.25 0 5.188-1.27 6.427-2.676h.092c.597 1.315 1.698 2.086 4.407 2.086h2.433c.642 0 1.102-.362 1.102-1.043v-2.63zm-8.906-3.128c-.551.68-2.204 1.904-3.856 1.904-3.489 0-4.223-3.356-4.223-6.167 0-4.217 2.111-6.03 4.36-6.03 1.378 0 2.893.815 3.719 1.54v8.753z"/><path d="M234.481 40.082h-.138l-4.269-13.422c-.184-.544-.597-.907-1.377-.907h-5.417c-.78 0-1.102.726-.826 1.36l8.492 20.86-.55 1.405c-.781 1.995-1.975 2.857-4.683 2.857-1.148 0-1.79-.136-2.25-.136-.412 0-.78.09-.917.997l-.414 2.857c-.091.726-.091 1.27.78 1.451.919.182 1.7.272 2.755.272 5.968 0 8.722-1.95 10.834-7.346l9.089-23.307c.23-.59.092-1.27-.689-1.27h-4.728c-.918 0-1.423.408-1.698 1.315l-3.994 13.014z"/></g><path fill="url(#e)" d="M9.527 62.543v-41.39l27.195 15.52V26.327L.462 5.631v51.738l9.065 5.174z" transform="translate(1 1)"/><path fill="url(#f)" d="M18.592 26.326v20.696l18.13-10.348V26.326l9.066-5.174v20.696L9.527 62.543v-41.39z" transform="translate(1 1)"/><path fill="url(#g)" d="M.462 5.63L9.527.458l36.26 20.695-9.065 5.174z" transform="translate(1 1)"/><path fill="url(#h)" d="M18.592 36.674l9.066-5.174 9.064 5.174-18.13 10.348z" transform="translate(1 1)"/><g fill-rule="nonzero" fill="#45386A"><path d="M19.695 26.881c.058.018.075.02.128.05a.46.46 0 0 1 .21.26c.019.059.016.074.021.135v19.905L46.42 32.183l.062-.03.066-.02a.464.464 0 0 1 .484.188.455.455 0 0 1-.093.614c-.018.015-.038.026-.057.038L19.823 48.417c-.02.01-.04.021-.062.03a.463.463 0 0 1-.507-.115.454.454 0 0 1-.118-.242c-.004-.023-.004-.046-.006-.068V27.326c.005-.06.002-.076.02-.135a.463.463 0 0 1 .34-.31c.06-.013.076-.01.136-.01l.069.01z"/><path d="M46.993 32.091c.025.015.05.028.073.044.091.069.154.17.176.28.004.03.004.057.008.085v10.348c-.003.027-.003.053-.008.08a.461.461 0 0 1-.1.213c-.047.055-.065.062-.123.102L10.758 63.94c-.065.03-.08.041-.15.054a.465.465 0 0 1-.536-.37c-.004-.026-.004-.053-.007-.08v-41.39c.003-.03.003-.057.008-.085a.461.461 0 0 1 .176-.28.471.471 0 0 1 .62.056.464.464 0 0 1 .112.224c.005.028.005.056.008.084v40.6l35.337-20.168V32.5c.007-.074.004-.095.03-.165a.466.466 0 0 1 .39-.29c.075-.006.094.002.168.016l.08.03z"/><path d="M1.552 16.53c.077.023.099.024.167.069a.46.46 0 0 1 .196.29c.006.03.006.06.008.09v41.127l8.835 5.042.074.052c.02.022.043.042.061.065a.456.456 0 0 1-.336.734.458.458 0 0 1-.179-.023c-.028-.01-.054-.025-.082-.037l-9.065-5.174c-.022-.015-.045-.029-.066-.046a.456.456 0 0 1-.137-.193c-.025-.067-.022-.087-.028-.157V16.98c.008-.08.004-.101.035-.175a.466.466 0 0 1 .25-.248c.075-.03.097-.027.177-.034l.09.008zM28.737 32.05c.047.011.06.012.103.031.017.007.032.016.049.024l9.064 5.174c.042.026.054.032.09.066a.455.455 0 0 1-.34.785.464.464 0 0 1-.162-.036l-.05-.025-8.833-5.042-8.835 5.042-.05.025c-.046.016-.057.022-.107.03a.466.466 0 0 1-.474-.222.456.456 0 0 1 .123-.593l.046-.03 9.065-5.174c.043-.022.053-.029.098-.042a.49.49 0 0 1 .106-.019h.054l.053.006z"/><path d="M10.607 1.007c.078.02.078.02.15.054L47.02 21.757c.021.015.045.028.066.046.061.05.109.118.137.193.024.067.021.086.028.156V32.5c-.004.03-.004.06-.01.089a.457.457 0 0 1-.196.29.47.47 0 0 1-.583-.056.461.461 0 0 1-.127-.234c-.005-.03-.005-.06-.008-.089V22.416l-35.8-20.432-8.603 4.91v9.82l35.414 20.213c.025.018.051.033.074.052a.455.455 0 0 1-.274.799.472.472 0 0 1-.179-.023c-.028-.01-.055-.025-.082-.037L1.231 17.374c-.058-.04-.076-.048-.123-.103a.444.444 0 0 1-.1-.213c-.006-.027-.006-.054-.008-.08V6.631c.002-.027.002-.054.007-.08a.446.446 0 0 1 .101-.214c.047-.054.065-.062.123-.102l9.065-5.174c.065-.03.08-.041.151-.054.026-.005.053-.005.08-.007l.08.007z"/><path d="M1.542 6.181a.61.61 0 0 1 .151.054l36.26 20.696c.022.015.046.028.066.045.062.052.11.119.137.194.025.067.022.086.028.156v10.348c-.002.027-.002.053-.007.08a.443.443 0 0 1-.158.27.47.47 0 0 1-.593 0 .46.46 0 0 1-.159-.27c-.004-.027-.004-.053-.006-.08V27.59L1.23 7.026l-.066-.046c-.02-.019-.04-.036-.057-.056a.456.456 0 0 1 .273-.743c.027-.005.054-.005.081-.007l.08.007z"/><path d="M46.828 21.697c.035.005.045.005.08.014a.461.461 0 0 1 .314.285.456.456 0 0 1-.137.506c-.028.023-.036.027-.066.046l-9.066 5.173c-.032.017-.039.022-.072.034a.473.473 0 0 1-.317 0 .46.46 0 0 1-.288-.547.46.46 0 0 1 .15-.232c.027-.022.036-.026.065-.045l9.066-5.174a.527.527 0 0 1 .111-.046.559.559 0 0 1 .16-.014z"/></g></g></g></svg>